<svg xmlns="http://www.w3.org/2000/svg" width="1200" height="630" viewBox="0 0 1200 630" fill="none">
  <defs><linearGradient id="bg" x1="0" y1="0" x2="1200" y2="630" gradientUnits="userSpaceOnUse"><stop stop-color="#f8fafc"/><stop offset="1" stop-color="#e0f2fe"/></linearGradient><filter id="shadow" x="150" y="70" width="900" height="520" filterUnits="userSpaceOnUse"><feDropShadow dx="0" dy="18" stdDeviation="18" flood-color="#0f172a" flood-opacity=".12"/></filter></defs>
  <rect width="1200" height="630" rx="36" fill="url(#bg)"/><circle cx="1010" cy="105" r="115" fill="#dbeafe"/><circle cx="170" cy="525" r="105" fill="#dcfce7"/><rect x="190" y="70" width="820" height="490" rx="38" fill="#fff" filter="url(#shadow)"/>
  <g stroke-linecap="round" stroke-linejoin="round"><path d="M285 220q0-35 40-35h270q40 0 40 35v130q0 35-40 35H430l-70 60v-60h-35q-40 0-40-35z" fill="#dbeafe" stroke="#2563eb" stroke-width="12"/><path d="M565 340q0-35 40-35h270q40 0 40 35v130q0 35-40 35H740l-70 60v-60h-65q-40 0-40-35z" fill="#fce7f3" stroke="#db2777" stroke-width="12"/><circle cx="410" cy="290" r="14" fill="#2563eb"/><circle cx="460" cy="290" r="14" fill="#2563eb"/><circle cx="510" cy="290" r="14" fill="#2563eb"/><path d="M675 390h120m-120 40h85" stroke="#db2777" stroke-width="14" stroke-linecap="round"/></g>
</svg>
